<svg xmlns="http://www.w3.org/2000/svg" xmlns:xlink="http://www.w3.org/1999/xlink" width="40" height="40" viewBox="0 0 40 40"><defs><style>.a{fill:#ed3833;stroke:#fff;}.a,.b,.d{stroke-miterlimit:10;}.b,.c,.d{fill:none;}.b{stroke:#005488;stroke-linecap:round;stroke-linejoin:round;stroke-width:2px;}.d{stroke:rgba(145,169,192,0.42);stroke-width:0.6px;}.e{stroke:none;}.f{filter:url(#a);}</style><filter id="a" x="19.423" y="4.038" width="20.231" height="20.231" filterUnits="userSpaceOnUse"><feOffset dy="2" input="SourceAlpha"/><feGaussianBlur stdDeviation="2" result="b"/><feFlood flood-color="#ed3833" flood-opacity="0.29"/><feComposite operator="in" in2="b"/><feComposite in="SourceGraphic"/></filter></defs><g transform="translate(9 8.538)"><g transform="translate(3.385)"><g class="f" transform="matrix(1, 0, 0, 1, -12.38, -8.54)"><circle class="a" cx="3.615" cy="3.615" r="3.615" transform="translate(25.92 8.54)"/></g><g transform="translate(0 5.538)"><path class="b" d="M12.692,5.077a5.077,5.077,0,0,0-10.154,0C2.538,11,0,12.692,0,12.692H15.231S12.692,11,12.692,5.077"/><path class="b" d="M2.928,0A1.692,1.692,0,0,1,1.464.845,1.692,1.692,0,0,1,0,0" transform="translate(6.152 16.075)"/></g></g><g transform="translate(0 0.462)"><path class="c" d="M0,0H20.308V20.308H0Z"/></g></g><g class="d"><rect class="e" width="40" height="40" rx="8"/><rect class="c" x="0.3" y="0.3" width="39.4" height="39.4" rx="7.7"/></g></svg>